<svg width="100%" height="100%" viewBox="0 0 24 24" fill="none" xmlns="http://www.w3.org/2000/svg">
<path fill-rule="evenodd" clip-rule="evenodd" d="M20.8285 7.15659C20.9384 7.26778 21 7.41779 21 7.57409C21 7.7304 20.9384 7.88041 20.8285 7.99159L12.4005 16.8206C12.3502 16.877 12.2886 16.9221 12.2197 16.953C12.1507 16.9838 12.0761 16.9998 12.0005 16.9998C11.925 16.9998 11.8503 16.9838 11.7814 16.953C11.7124 16.9221 11.6508 16.877 11.6005 16.8206L3.17253 8.02059C3.06332 7.90914 3.00165 7.75963 3.00053 7.60359C3.00123 7.44747 3.06296 7.29781 3.17253 7.18659C3.22281 7.13022 3.28444 7.08511 3.35337 7.05423C3.42231 7.02334 3.49699 7.00738 3.57253 7.00738C3.64807 7.00738 3.72275 7.02334 3.79169 7.05423C3.86062 7.08511 3.92225 7.13022 3.97253 7.18659L12.0015 15.5376L20.0305 7.15459C20.1397 7.05465 20.2824 6.99939 20.4304 6.99976C20.5784 7.00013 20.7209 7.05611 20.8295 7.15659L20.8285 7.15659Z" fill="black"/>
</svg>
