<svg width="100%" height="100%" viewBox="0 0 18 18" fill="none" xmlns="http://www.w3.org/2000/svg">
<rect x="0.5" y="0.5" width="17" height="17" stroke="black"/>
<g clip-path="url(#clip0_25_5749)">
<path fill-rule="evenodd" clip-rule="evenodd" d="M13.9824 5.64969L7.51695 12.0708L4.0721 8.67533C4.02546 8.62538 3.96828 8.5854 3.90432 8.55803C3.84036 8.53066 3.77105 8.51651 3.70095 8.51651C3.63086 8.51651 3.56155 8.53066 3.49759 8.55803C3.43363 8.5854 3.37645 8.62538 3.32981 8.67533C3.22824 8.77467 3.17139 8.90798 3.17139 9.04679C3.17139 9.18559 3.22824 9.3189 3.32981 9.41824L7.14495 13.186C7.25124 13.2923 7.41067 13.3455 7.5161 13.3455C7.67467 13.3455 7.78181 13.2931 7.88638 13.186L14.6698 6.39424C14.7716 6.29486 14.8287 6.16138 14.8287 6.02238C14.8287 5.88337 14.7716 5.74989 14.6698 5.65051C14.5121 5.43778 14.1941 5.43778 13.9824 5.65051V5.64969Z" fill="black"/>
</g>
<defs>
<clipPath id="clip0_25_5749">
<rect width="12" height="9" fill="white" transform="translate(3 5)"/>
</clipPath>
</defs>
</svg>
