<svg width="100%" height="100%" viewBox="0 0 24 24" fill="current" stroke="current" xmlns="http://www.w3.org/2000/svg">
<path d="M6.29524 9.6305V7.4505C6.29524 6.07124 6.84315 4.74847 7.81843 3.77319C8.79372 2.79791 10.1165 2.25 11.4957 2.25C12.875 2.25 14.1978 2.79791 15.1731 3.77319C16.1483 4.74847 16.6962 6.07124 16.6962 7.4505V9.6305M4.58524 9.6305H18.4152C18.667 9.63076 18.9084 9.73097 19.0863 9.9091C19.2643 10.0872 19.3642 10.3287 19.3642 10.5805V20.8005C19.3642 21.0524 19.2642 21.2939 19.0862 21.4721C18.9081 21.6502 18.6666 21.7504 18.4147 21.7505H4.58574C4.33379 21.7505 4.09215 21.6504 3.91399 21.4723C3.73583 21.2941 3.63574 21.0525 3.63574 20.8005V10.5805C3.63574 10.3285 3.73583 10.0869 3.91399 9.90875C4.09215 9.73059 4.33379 9.6305 4.58574 9.6305H4.58524Z" stroke="white" stroke-linecap="round" stroke-linejoin="round"/>
<path d="M11.4955 17.7069C12.6095 17.7069 13.5125 16.8038 13.5125 15.6899C13.5125 14.5759 12.6095 13.6729 11.4955 13.6729C10.3816 13.6729 9.47852 14.5759 9.47852 15.6899C9.47852 16.8038 10.3816 17.7069 11.4955 17.7069Z" stroke="white" stroke-linecap="round" stroke-linejoin="round"/>
</svg>
