<svg width="100%" height="100%" viewBox="0 0 78 60" fill="none" xmlns="http://www.w3.org/2000/svg">
<mask id="mask0_130_5729" style="mask-type:alpha" maskUnits="userSpaceOnUse" x="0" y="13" width="100%" height="100%">
<path d="M0 13.6104H69.579V57.4441H0V13.6104Z" fill="white"/>
</mask>
<g mask="url(#mask0_130_5729)">
<path fill-rule="evenodd" clip-rule="evenodd" d="M0.0590487 42.178C2.33242 45.5989 5.13133 48.8741 8.41443 51.424C10.058 52.7044 11.8412 53.8057 13.7593 54.593C15.6804 55.3439 17.7471 55.8045 19.7882 56.1814C23.8911 56.9047 28.116 56.9589 32.2042 56.1981C36.3002 55.4748 40.2161 53.9513 43.8741 51.982C47.5233 49.9714 50.9403 47.5406 53.9262 44.6374C56.9357 41.7588 59.5043 38.4422 61.8446 34.9829C64.117 31.4823 66.4337 27.9365 68.027 24.115C68.3931 23.1545 68.7385 22.1713 68.8468 21.1823C68.895 20.6902 68.8891 20.2001 68.7681 19.7533C68.6451 19.2966 68.3823 18.9709 68.0103 18.5507C67.4434 17.7978 66.4681 17.2821 65.6119 16.7152C64.7262 16.1681 63.8198 15.6425 62.9075 15.1367L62.9036 15.1357L62.8612 15.1091C61.8604 14.4497 60.4855 14.2057 59.2081 14.2411C58.5704 14.2687 57.8775 14.3169 57.3057 14.5068C56.7039 14.7229 56.1402 15.0332 55.6357 15.426C53.563 17.0252 51.9471 19.2396 50.5378 21.4736L50.5476 21.4539L43.3142 36.1039C40.4641 40.8199 36.2086 44.6462 31.1836 46.8547C28.6628 47.9444 25.9725 48.5903 23.2317 48.7639C20.5015 48.8941 17.7653 48.7215 15.0732 48.2492C9.72827 47.2818 4.45522 45.2554 0.0590487 42.18V42.178ZM0 42.1121C4.57573 45.1031 9.7184 47.1199 15.1076 48.0366C17.7845 48.4844 20.5076 48.635 23.216 48.4824C25.9184 48.2919 28.5675 47.6349 31.0458 46.5407C35.9764 44.3402 40.159 40.4863 42.9048 35.8903L50.0477 21.2088L50.0585 21.1892C51.4954 18.8882 53.0877 16.6542 55.2745 14.9408C55.8292 14.5039 56.4506 14.159 57.1148 13.9193C57.8244 13.687 58.4907 13.6516 59.1914 13.6132C60.578 13.5837 61.9952 13.7736 63.2618 14.5924L63.2175 14.5639C64.1456 15.0687 65.0614 15.5957 65.9642 16.1444C66.8431 16.729 67.8105 17.1945 68.5437 18.1127C68.8694 18.468 69.2936 18.9837 69.4393 19.5565C69.5977 20.1273 69.5997 20.702 69.5505 21.2531C69.4324 22.3583 69.0781 23.3808 68.7071 24.3798C67.0862 28.337 64.7951 31.8858 62.5296 35.4386C60.1972 38.95 57.6118 42.3404 54.5373 45.2692C51.4954 48.2285 48.0075 50.7115 44.2993 52.7566C36.9005 56.9234 27.9969 58.4538 19.6799 56.7719C17.6024 56.3566 15.5524 55.8724 13.5645 55.0664C11.604 54.2298 9.79913 53.0784 8.15167 51.7537C4.8834 49.0498 2.12304 45.7853 0 42.1131" fill="#231F20"/>
</g>
<mask id="mask1_130_5729" style="mask-type:alpha" maskUnits="userSpaceOnUse" x="62" y="0" width="100%" height="100%">
<path d="M62.5342 0H76.948V14.7917H62.5342V0Z" fill="white"/>
</mask>
<g mask="url(#mask1_130_5729)">
<path fill-rule="evenodd" clip-rule="evenodd" d="M62.5438 14.7196C63.8104 13.081 65.077 11.469 66.1635 9.74677C67.2893 8.0747 68.1662 6.23042 69.2114 4.41664C69.7251 3.5132 70.2447 2.61172 70.8667 1.75748C71.1777 1.33233 71.5064 0.913087 71.9276 0.549937C72.335 0.15628 72.9747 -0.0385809 73.5111 0.00373734C74.633 0.0332617 75.6546 0.712321 76.1978 1.62758C76.7401 2.55464 76.928 3.61752 76.9477 4.6489C76.9481 4.65475 76.9473 4.66061 76.9454 4.66615C76.9435 4.67168 76.9404 4.67676 76.9365 4.68109C76.9325 4.68541 76.9277 4.68889 76.9224 4.69131C76.917 4.69373 76.9113 4.69503 76.9054 4.69515C76.8942 4.69518 76.8833 4.69092 76.8751 4.68324C76.8669 4.67557 76.8619 4.66505 76.8611 4.65382C76.7824 3.63326 76.5314 2.60778 75.9754 1.77323C75.4194 0.948516 74.4716 0.41511 73.5072 0.446602C72.4994 0.373776 71.9148 1.26738 71.3371 2.08717C70.7791 2.92861 70.3038 3.83895 69.8353 4.75125C68.9033 6.55519 68.1751 8.55005 66.8947 10.2487C65.6409 11.9257 64.2444 13.4905 62.6058 14.7836C62.6011 14.7871 62.5957 14.7895 62.5901 14.7909C62.5844 14.7923 62.5785 14.7925 62.5727 14.7916C62.567 14.7907 62.5615 14.7886 62.5565 14.7856C62.5515 14.7825 62.5472 14.7785 62.5438 14.7738C62.53 14.758 62.532 14.7354 62.5438 14.7196Z" fill="#231F20"/>
</g>
<path fill-rule="evenodd" clip-rule="evenodd" d="M67.5339 17.697C67.5496 16.147 67.7779 14.6304 68.0053 13.1138C68.2562 11.6012 68.6784 10.122 69.08 8.64287C69.4719 7.15887 69.9134 5.68839 70.4036 4.2339C70.6595 3.50957 70.9351 2.78819 71.2608 2.08847C71.6171 1.43303 71.8936 0.605362 72.6741 0.281578C72.6977 0.274689 72.7223 0.283547 72.7311 0.306182C72.738 0.325865 72.7311 0.350468 72.7095 0.359326L72.6898 0.370151C72.0403 0.692951 71.7903 1.52652 71.5049 2.19279C71.2392 2.90137 71.0227 3.63161 70.8258 4.36676C70.4243 5.83477 70.0718 7.31575 69.7689 8.80722C69.4608 10.3012 69.2364 11.8098 68.8733 13.291C68.4885 14.7682 68.1381 16.2533 67.6205 17.7108C67.6187 17.7165 67.6158 17.7217 67.6119 17.7263C67.6081 17.7308 67.6033 17.7345 67.598 17.7372C67.5927 17.7399 67.5869 17.7414 67.5809 17.7418C67.575 17.7421 67.569 17.7413 67.5634 17.7393C67.5457 17.7344 67.5339 17.7147 67.5339 17.697ZM48.8824 32.8036C49.9472 29.7941 51.2227 26.8564 52.7658 24.0388C53.5482 22.6374 54.3542 21.2242 55.4476 20.0009C56.5528 18.8603 57.9208 17.6222 59.6194 17.5582C59.644 17.5563 59.6637 17.5759 59.6656 17.6006C59.6656 17.6202 59.6489 17.638 59.6312 17.6448C58.1383 18.1979 57.0921 19.374 56.1208 20.5756C55.173 21.8058 54.2312 23.0645 53.3779 24.398C51.7246 27.0926 50.2621 29.9289 48.9641 32.8351C48.9621 32.8406 48.959 32.8457 48.9551 32.85C48.9511 32.8543 48.9463 32.8577 48.941 32.8601C48.9356 32.8625 48.9299 32.8638 48.924 32.8639C48.9182 32.864 48.9124 32.8629 48.907 32.8607C48.8965 32.8559 48.8882 32.8475 48.8837 32.8369C48.8791 32.8264 48.8787 32.8145 48.8824 32.8036Z" fill="#231F20"/>
</svg>
