<svg width="100%" height="100%" viewBox="0 0 41 30" fill="none" xmlns="http://www.w3.org/2000/svg">
<mask id="mask0_130_5709" style="mask-type:alpha" maskUnits="userSpaceOnUse" x="0" y="7" width="100%" height="100%">
<path d="M0.709961 7.03223H36.6591V29.6797H0.709961V7.03223Z" fill="white"/>
</mask>
<g mask="url(#mask0_130_5709)">
<path fill-rule="evenodd" clip-rule="evenodd" d="M0.740469 21.7922C1.91505 23.5596 3.36115 25.2518 5.05742 26.5693C5.90657 27.2308 6.82793 27.7998 7.81894 28.2066C8.81149 28.5946 9.87928 28.8325 10.9339 29.0273C13.0537 29.401 15.2366 29.429 17.3488 29.0359C19.465 28.6622 21.4883 27.8751 23.3783 26.8576C25.2637 25.8188 27.0291 24.5629 28.5718 23.0629C30.1267 21.5756 31.4539 19.862 32.663 18.0747C33.8371 16.2661 35.034 14.434 35.8573 12.4596C36.0464 11.9634 36.2249 11.4554 36.2808 10.9444C36.3057 10.6901 36.3027 10.4369 36.2401 10.2061C36.1766 9.97015 36.0408 9.80184 35.8486 9.58472C35.5557 9.19574 35.0518 8.9293 34.6095 8.63642C34.1518 8.35371 33.6835 8.08218 33.2122 7.82083L33.2101 7.82032L33.1883 7.80659C32.6711 7.46591 31.9608 7.33981 31.3008 7.35811C30.9713 7.37235 30.6134 7.39727 30.3179 7.4954C30.007 7.60705 29.7157 7.76735 29.455 7.97032C28.3842 8.79659 27.5493 9.94066 26.8211 11.0949L26.8262 11.0847L23.0889 18.6539C21.6164 21.0905 19.4178 23.0674 16.8215 24.2085C15.519 24.7715 14.1291 25.1052 12.713 25.1949C11.3024 25.2622 9.88871 25.173 8.49776 24.929C5.73623 24.4291 3.01183 23.3822 0.740469 21.7932V21.7922ZM0.709961 21.7581C3.07409 23.3035 5.73113 24.3455 8.51555 24.8191C9.89861 25.0505 11.3056 25.1283 12.7049 25.0495C14.1011 24.951 15.4698 24.6116 16.7503 24.0462C19.2978 22.9093 21.4588 20.9181 22.8774 18.5435L26.5679 10.9581L26.5735 10.9479C27.3159 9.75913 28.1386 8.60489 29.2684 7.71964C29.5551 7.49391 29.8761 7.31571 30.2193 7.19184C30.5859 7.07184 30.9301 7.05354 31.2922 7.03371C32.0086 7.01845 32.7408 7.11659 33.3952 7.53964L33.3723 7.52489C33.8519 7.7857 34.325 8.05798 34.7915 8.3415C35.2456 8.64354 35.7454 8.88405 36.1242 9.35845C36.2925 9.54201 36.5117 9.80845 36.5869 10.1044C36.6688 10.3993 36.6698 10.6962 36.6444 10.981C36.5834 11.552 36.4003 12.0803 36.2086 12.5964C35.3712 14.641 34.1874 16.4746 33.0169 18.3101C31.8118 20.1244 30.4761 21.8761 28.8876 23.3893C27.3159 24.9183 25.5139 26.2012 23.5979 27.2578C19.7752 29.4107 15.175 30.2013 10.8779 29.3323C9.80454 29.1178 8.74539 28.8676 7.71827 28.4512C6.70538 28.019 5.77284 27.424 4.92166 26.7396C3.23305 25.3426 1.80687 23.6559 0.709961 21.7586" fill="#231F20"/>
</g>
<mask id="mask1_130_5709" style="mask-type:alpha" maskUnits="userSpaceOnUse" x="33" y="0" width="100%" height="100%">
<path d="M33.0195 0H40.4666V7.64237H33.0195V0Z" fill="white"/>
</mask>
<g mask="url(#mask1_130_5709)">
<path fill-rule="evenodd" clip-rule="evenodd" d="M33.0245 7.60518C33.6789 6.75857 34.3333 5.92569 34.8947 5.03586C35.4764 4.17196 35.9294 3.21908 36.4694 2.28196C36.7348 1.81518 37.0033 1.34942 37.3247 0.908065C37.4853 0.688404 37.6552 0.471794 37.8728 0.284167C38.0833 0.080777 38.4138 -0.0199009 38.6909 0.00196351C39.2706 0.0172177 39.7984 0.368065 40.0791 0.840947C40.3592 1.31993 40.4564 1.86908 40.4665 2.40196C40.4667 2.40499 40.4663 2.40802 40.4653 2.41088C40.4643 2.41373 40.4628 2.41636 40.4607 2.4186C40.4587 2.42083 40.4562 2.42263 40.4534 2.42388C40.4507 2.42512 40.4477 2.4258 40.4447 2.42586C40.4389 2.42587 40.4333 2.42367 40.429 2.41971C40.4248 2.41574 40.4222 2.41031 40.4218 2.40451C40.3811 1.87722 40.2514 1.34739 39.9642 0.916201C39.6769 0.490099 39.1872 0.214506 38.6889 0.230777C38.1682 0.19315 37.8662 0.654845 37.5677 1.0784C37.2794 1.51315 37.0338 1.98349 36.7918 2.45484C36.3103 3.38688 35.934 4.41756 35.2725 5.29518C34.6247 6.16162 33.9031 6.9701 33.0565 7.63823C33.0541 7.64001 33.0513 7.64129 33.0484 7.64199C33.0455 7.6427 33.0424 7.64282 33.0395 7.64235C33.0365 7.64188 33.0336 7.64082 33.0311 7.63924C33.0285 7.63766 33.0263 7.63559 33.0245 7.63315C33.0174 7.62501 33.0184 7.61332 33.0245 7.60518Z" fill="#231F20"/>
</g>
<path fill-rule="evenodd" clip-rule="evenodd" d="M35.6027 9.14368C35.6109 8.34283 35.7288 7.55927 35.8463 6.77571C35.976 5.99418 36.1941 5.22995 36.4016 4.46571C36.6041 3.69898 36.8322 2.93923 37.0855 2.18774C37.2177 1.81351 37.36 1.44079 37.5283 1.07927C37.7124 0.740625 37.8553 0.312998 38.2585 0.14571C38.2707 0.142151 38.2834 0.146727 38.288 0.158422C38.2916 0.168591 38.288 0.181303 38.2768 0.18588L38.2666 0.191473C37.931 0.358252 37.8019 0.78893 37.6544 1.13317C37.5171 1.49927 37.4053 1.87656 37.3036 2.25639C37.0961 3.01486 36.914 3.78003 36.7575 4.55063C36.5983 5.32249 36.4824 6.10198 36.2948 6.86724C36.096 7.63046 35.9149 8.39774 35.6475 9.15079C35.6466 9.15373 35.6451 9.15646 35.6431 9.1588C35.6411 9.16115 35.6386 9.16306 35.6359 9.16444C35.6331 9.16582 35.6301 9.16663 35.627 9.16681C35.624 9.167 35.6209 9.16657 35.618 9.16554C35.6088 9.163 35.6027 9.15283 35.6027 9.14368ZM25.9661 16.9488C26.5163 15.3938 27.1753 13.876 27.9726 12.4203C28.3768 11.6962 28.7932 10.966 29.3582 10.334C29.9292 9.74469 30.636 9.10503 31.5136 9.07198C31.5263 9.07096 31.5365 9.08113 31.5375 9.09385C31.5375 9.10402 31.5288 9.11317 31.5197 9.11673C30.7483 9.40249 30.2078 10.0101 29.706 10.631C29.2163 11.2666 28.7297 11.9169 28.2888 12.6059C27.4346 13.9981 26.679 15.4635 26.0083 16.965C26.0073 16.9679 26.0057 16.9705 26.0037 16.9727C26.0016 16.9749 25.9992 16.9767 25.9964 16.9779C25.9937 16.9792 25.9907 16.9798 25.9877 16.9799C25.9846 16.9799 25.9816 16.9794 25.9788 16.9783C25.9734 16.9758 25.9691 16.9714 25.9668 16.966C25.9644 16.9605 25.9642 16.9544 25.9661 16.9488Z" fill="#231F20"/>
</svg>
