<svg width="100%" height="100%" viewBox="0 0 78 60" fill="none" xmlns="http://www.w3.org/2000/svg">
<path fill-rule="evenodd" clip-rule="evenodd" d="M44.5229 42.4452L31.8135 24.9678L45.2777 41.8748C45.4325 42.0669 45.3913 42.3547 45.1851 42.5169C44.9798 42.6783 44.6886 42.6527 44.5347 42.4614C44.5302 42.4564 44.5263 42.451 44.5229 42.4452Z" fill="#010202"/>
<path d="M44.6072 41.7537C45.3107 42.652 45.9587 50.5402 45.9587 50.5402C45.9587 50.5402 50.5702 45.3247 51.6103 38.0111C52.6487 30.6976 51.2316 29.7198 50.0013 26.0054C48.771 22.291 43.5806 17.5024 40.9248 16.1874C39.0095 15.2396 32.8765 13.0844 29.5542 11.9393C28.3576 11.5294 27.0086 12.2057 26.5837 13.4216C24.6112 19.0727 24.2367 25.1174 25.8633 30.6822C26.8286 33.9816 28.488 37.0983 31.3264 38.6251C31.3264 38.6251 37.9374 41.9211 42.3394 41.0877C46.7396 40.2543 45.9301 48.6532 45.9301 48.6532" stroke="#010202" stroke-width="0.5" stroke-linecap="round" stroke-linejoin="round"/>
<path fill-rule="evenodd" clip-rule="evenodd" d="M39.6357 57.7987L36.2579 58.3896L33.1173 56.9961L29.6991 56.7493L26.9785 54.6334L23.7168 53.5634L21.5751 50.8481L18.661 49.0182L17.2211 45.8622L14.8228 43.3774L14.1698 39.9618L12.4279 36.9672L12.5987 33.4936L11.6133 30.1626L12.5979 26.8316L12.4279 23.3579L14.1698 20.3625L14.8228 16.9486L17.2211 14.4638L18.6601 11.307L21.5751 9.47625L23.7168 6.76088L26.9785 5.69181L29.6991 3.57587L33.1173 3.3291L36.2579 1.93555L39.6357 2.52644L43.0136 1.93555L46.1541 3.3291L49.5723 3.57587L52.2929 5.69181L55.5547 6.76173L57.6963 9.4771L60.6105 11.307L62.0503 14.463L64.4486 16.9478L65.1016 20.3633L66.8436 23.3579L66.6727 26.8316L67.6582 30.1626L66.6736 33.4936L66.8436 36.9672L65.1016 39.9627L64.4486 43.3765L62.0503 45.8614L60.6113 49.0182L57.6963 50.8489L55.5547 53.5643L52.2929 54.6334L49.5723 56.7493L46.1541 56.9961L43.0136 58.3896L39.6357 57.7987Z" stroke="black" stroke-width="0.5"/>
</svg>
