<svg width="100%" height="100%" viewBox="0 0 30 31" fill="none" xmlns="http://www.w3.org/2000/svg">
<path fill-rule="evenodd" clip-rule="evenodd" d="M17.713 21.9294L11.1465 12.8994L18.103 21.6347C18.183 21.734 18.1617 21.8826 18.0552 21.9665C17.9491 22.0499 17.7987 22.0366 17.7191 21.9378C17.7168 21.9352 17.7148 21.9324 17.713 21.9294Z" fill="#010202"/>
<path d="M17.7566 21.5725C18.12 22.0367 18.4548 26.1122 18.4548 26.1122C18.4548 26.1122 20.8374 23.4175 21.3748 19.6389C21.9113 15.8602 21.1792 15.355 20.5435 13.4359C19.9079 11.5168 17.2261 9.04269 15.8539 8.36328C14.8644 7.87357 11.6957 6.76004 9.97917 6.16842C9.36091 5.95666 8.66395 6.30607 8.44439 6.93431C7.42526 9.85401 7.23178 12.9771 8.07221 15.8522C8.57091 17.557 9.4283 19.1672 10.8948 19.9561C10.8948 19.9561 14.3105 21.659 16.5848 21.2284C18.8583 20.7978 18.44 25.1372 18.44 25.1372" stroke="#010202" stroke-width="0.5" stroke-linecap="round" stroke-linejoin="round"/>
<path fill-rule="evenodd" clip-rule="evenodd" d="M15.1882 29.8626L13.443 30.1679L11.8204 29.4479L10.0543 29.3204L8.64866 28.2272L6.96344 27.6744L5.85692 26.2715L4.35127 25.326L3.60735 23.6954L2.36822 22.4116L2.03083 20.6469L1.13083 19.0997L1.21909 17.305L0.709961 15.584L1.21866 13.8629L1.13083 12.0682L2.03083 10.5206L2.36822 8.75677L3.60735 7.47294L4.35083 5.84191L5.85692 4.89603L6.96344 3.49309L8.64866 2.94074L10.0543 1.8475L11.8204 1.72L13.443 1L15.1882 1.30529L16.9334 1L18.556 1.72L20.3221 1.8475L21.7278 2.94074L23.413 3.49353L24.5195 4.89647L26.0252 5.84191L26.7691 7.4725L28.0082 8.75632L28.3456 10.521L29.2456 12.0682L29.1574 13.8629L29.6665 15.584L29.1578 17.305L29.2456 19.0997L28.3456 20.6474L28.0082 22.4112L26.7691 23.695L26.0256 25.326L24.5195 26.2719L23.413 27.6749L21.7278 28.2272L20.3221 29.3204L18.556 29.4479L16.9334 30.1679L15.1882 29.8626Z" stroke="black" stroke-width="0.5"/>
</svg>
