<svg width="100%" height="100%" viewBox="0 0 41 31" fill="none" xmlns="http://www.w3.org/2000/svg">
<path fill-rule="evenodd" clip-rule="evenodd" d="M25.1049 24.2254L30.7813 10.3447L25.6828 24.4482C25.6689 24.4864 25.6477 24.5215 25.6203 24.5516C25.5929 24.5816 25.5599 24.606 25.5231 24.6232C25.4863 24.6405 25.4464 24.6503 25.4058 24.6522C25.3652 24.654 25.3246 24.6479 25.2864 24.6341C25.2481 24.6202 25.213 24.599 25.183 24.5716C25.1529 24.5442 25.1286 24.5112 25.1113 24.4744C25.0941 24.4376 25.0842 24.3977 25.0824 24.3571C25.0805 24.3165 25.0866 24.2759 25.1005 24.2377L25.1049 24.2254Z" fill="#010202"/>
<path d="M17.8135 24.7786C17.8135 24.7786 12.8576 23.5525 11.0916 21.5411C9.32648 19.5286 6.47943 16.6835 6.72484 4.66238C6.72484 4.66238 8.58976 2.74927 18.5006 8.09714M25.5117 24.0099C25.2166 24.7462 26.154 30.0773 26.154 30.0773C26.154 30.0773 22.3273 27.5755 20.4142 22.9634C18.5001 18.3512 19.2368 17.4193 19.3839 14.7207C19.5304 12.0217 22.015 7.81091 23.4806 6.40435C24.5365 5.39025 28.0716 2.72566 29.9906 1.29599C30.154 1.1745 30.3404 1.08758 30.5385 1.04054C30.7366 0.993498 30.9422 0.987325 31.1428 1.02239C31.3434 1.05747 31.5347 1.13304 31.7051 1.24451C31.8755 1.35599 32.0214 1.50101 32.1339 1.67074C34.3578 4.99533 35.6296 8.90664 35.5465 12.906C35.4973 15.278 34.9735 17.6696 33.4288 19.2517C33.4288 19.2517 29.7855 22.7671 26.8411 23.1104C23.8976 23.4537 25.8506 28.8271 25.8506 28.8271L25.5117 24.0099Z" stroke="#010202" stroke-width="0.5" stroke-linecap="round" stroke-linejoin="round"/>
<path fill-rule="evenodd" clip-rule="evenodd" d="M12.6217 9.99589C13.3501 10.7177 14.0458 11.4715 14.707 12.2552C15.0385 12.6472 15.3901 13.0288 15.6517 13.4798C15.8917 13.9323 16.175 14.4123 16.1672 14.9631C16.1671 14.968 16.1654 14.9728 16.1623 14.9767C16.1592 14.9805 16.1549 14.9832 16.1501 14.9843C16.1453 14.9855 16.1402 14.985 16.1358 14.9829C16.1313 14.9808 16.1276 14.9773 16.1254 14.9729L16.1239 14.969C15.8917 14.5161 15.5854 14.128 15.2829 13.7247C14.9834 13.3215 14.7178 12.8897 14.4276 12.4721C13.8313 11.6441 13.2182 10.8282 12.5888 10.0249C12.587 10.0226 12.5856 10.02 12.5848 10.0172C12.584 10.0144 12.5838 10.0115 12.5842 10.0086C12.5845 10.0057 12.5855 10.0029 12.5869 10.0004C12.5884 9.99786 12.5904 9.99566 12.5927 9.99393C12.5969 9.99059 12.6023 9.98894 12.6076 9.98931C12.613 9.98967 12.618 9.99202 12.6217 9.99589Z" fill="#010202"/>
</svg>
